<svg xmlns="http://www.w3.org/2000/svg" width="100" height="100" fill="none"><style>@media (prefers-color-scheme:dark){path{fill:#f4b9d6;}}</style><path fill="#000" d="M45.749.239c-6.423 1.015-11.604 3.708-16.314 8.563C23.783 14.585 21 21.56 21 29.77c0 9.888 4.41 18.584 12.546 24.675 5.223 3.929 8.22 10.109 10.062 20.615.642 3.84 1.413 16.112 1.327 21.806l-.043 2.87 4.839.132 4.795.132v-6.975c0-18.054 3.34-30.281 9.977-36.77 8.178-7.99 9.206-9.137 10.961-12.89 2.355-4.9 3.169-8.475 3.169-13.595 0-8.21-2.783-15.185-8.435-21.012C64.974 3.417 58.979.592 51.486.062 49.731-.07 47.162.018 45.75.24m10.276 5.473c3.94 1.06 7.45 3.223 10.705 6.622 4.923 5.076 7.064 10.329 7.064 17.436 0 4.458-.813 7.99-2.611 11.521-1.756 3.399-3.597 5.562-7.879 9.226-5.566 4.811-8.82 10.55-11.175 19.82-.942 3.752-2.227 12.183-2.355 15.626-.043.794-.215-.574-.429-3.002-.47-6.356-1.541-12.139-3.21-17.436-2.227-7.195-5.524-12.183-10.063-15.362-4.368-3.001-8.221-8.695-9.591-13.992-.814-3.355-.814-9.447 0-12.802 2.055-8.034 9.206-15.45 16.956-17.612 3.082-.883 9.42-.883 12.588-.045"/><path fill="#000" d="M47.247 20.28v6.356l-6.722.132-6.765.133-.129 2.736-.128 2.781h13.744v13.287l2.698-.132 2.655-.133.128-6.533.128-6.489H66.13l-.128-2.78-.129-2.737-6.508-.133-6.551-.132V13.879h-5.567z"/></svg>