<svg width="236" height="110" viewBox="0 0 236 110" fill="none" xmlns="http://www.w3.org/2000/svg">
    <g filter="url(#filter0_d_1011_295)">
    <path d="M42.7166 51.707L37.8026 47.8477C34.4907 50.365 32.4068 51.707 28.7745 51.707C19.585 51.707 12 44.0448 12 33.2741C12 24.5937 16.6474 17.7877 25.6754 13.2856C27.2237 12.4809 28.7207 12 30.8047 12C34.2779 12 38.123 13.3396 40.9555 15.6434C45.1234 19.0194 47.474 24.1104 47.474 29.8981C47.474 34.7216 45.8181 39.3293 42.56 43.3481L47.3688 46.9375L42.7214 51.707H42.7166ZM41.1683 33.4336C41.1683 24.1619 34.3293 17.5718 26.1035 17.5718C23.8605 17.5718 22.3636 18.0012 21.7228 18.698C19.9592 20.6804 18.3571 24.8611 18.3571 29.6822C18.3571 34.5033 20.2796 39.2753 23.4325 42.1679C26.852 38.63 29.7358 36.915 32.0863 36.915C34.5984 36.915 36.6285 38.576 39.8328 41.2552C40.6888 38.5221 41.1683 35.9508 41.1683 33.4311V33.4336ZM28.0774 41.6846C26.7957 41.6846 25.8882 42.1679 24.8732 43.2401C27.3314 44.7932 29.6281 45.5439 32.4068 45.5439C32.9938 45.5439 33.8499 45.436 34.9702 45.2765C32.0325 42.9727 29.9486 41.6871 28.0774 41.6871V41.6846Z" fill="#231F20"/>
    <path d="M56.8176 12.7483C56.6048 18.644 56.4434 24.2698 56.4434 29.6822C56.4434 36.9715 56.6562 41.3117 57.1918 42.7567C57.9403 44.9011 60.1833 46.4002 63.2823 46.4002C65.3125 46.4002 67.235 45.8113 68.9985 44.6852C69.8008 43.3456 69.8008 40.0236 69.8008 34.5572C69.8008 27.0545 69.747 19.8217 69.4266 12.9617L77.0654 12.7483C76.7988 19.1249 76.6911 25.4475 76.6911 31.7186C76.6911 34.5057 76.7449 37.7737 76.7988 41.5251C76.8526 44.1503 76.9064 47.2049 77.0654 50.6888L69.906 50.9563C70.0674 49.8301 70.0674 48.6525 70.0674 47.4184C65.4201 49.8301 62.48 51.7046 59.8628 51.7046C56.0178 51.7046 52.7035 49.8301 50.9424 46.935C49.6069 44.6852 49.4992 41.0393 49.4992 35.8968V29.4663C49.4992 24.6967 49.3378 19.1764 49.125 12.9617L56.8176 12.7483Z" fill="#231F20"/>
    <path d="M80.4836 31.9319C80.4836 25.8768 80.376 19.5542 80.1094 12.9617H100.037L98.4884 17.0884H87.4302C87.3764 19.9295 87.3226 23.8944 87.2687 29.1448H100.144L98.5961 33.485H87.2712C87.2712 38.2006 87.3788 42.4868 87.5378 46.3461H91.3315C94.2691 46.3461 97.3682 46.2382 100.521 46.0787L98.6523 50.6863H80.1143C80.3809 44.3637 80.4885 38.0926 80.4885 31.9319H80.4836Z" fill="#231F20"/>
    <path d="M102.546 31.9319C102.546 25.8768 102.438 19.5542 102.172 12.9617H122.099L120.551 17.0884H109.493C109.439 19.9295 109.385 23.8944 109.334 29.1448H122.209L120.661 33.485H109.336C109.336 38.2006 109.444 42.4868 109.603 46.3461H113.396C116.334 46.3461 119.433 46.2382 122.586 46.0787L120.715 50.6863H102.177C102.443 44.3637 102.551 38.0926 102.551 31.9319H102.546Z" fill="#231F20"/>
    <path d="M131.391 34.1844C131.391 39.5428 131.553 45.0091 131.766 50.6889L124.234 50.9564C124.501 44.0964 124.609 37.7199 124.609 31.9321C124.609 25.6635 124.501 19.2844 124.234 12.7484H126.585C131.02 12.7484 134.331 12.481 136.521 12.481C142.611 12.481 146.51 16.1244 146.51 21.2153C146.51 25.8769 143.411 29.7362 137.748 31.6107L145.015 42.222C146.138 43.883 147.579 45.8654 149.235 48.2772L143.252 51.7071C139.991 46.6162 136.146 40.7744 131.391 34.1844ZM135.877 28.772C136.305 29.0395 136.731 29.2529 137.213 29.3609C139.03 27.7538 139.938 25.7175 139.938 23.5731C139.938 19.4464 137 16.3918 132.565 16.3918C132.191 16.3918 131.817 16.4458 131.389 16.4997V32.202C133.314 31.0219 134.808 29.8442 135.877 28.772Z" fill="#231F20"/>
    <path d="M157.889 31.7186C157.889 37.9872 157.997 44.3123 158.263 50.6888L150.355 50.9563C150.622 44.6876 150.73 38.3086 150.73 31.932C150.73 25.5554 150.622 19.2304 150.355 12.9617L158.263 12.7483C157.997 19.1788 157.889 25.4475 157.889 31.7186Z" fill="#231F20"/>
    <path d="M163.659 17.1965L160.988 13.3911L167.986 12.0515L186.632 38.9514L186.365 12.9618L190.746 12.7483C190.638 17.5718 190.533 25.396 190.533 36.2722V39.0594C190.533 42.4354 190.587 46.2947 190.854 50.6888L186.581 51.4396C184.071 47.0454 177.606 37.3468 167.348 22.074L166.974 50.6888L162.431 50.9563C163.021 38.3086 163.5 27.057 163.659 17.1965Z" fill="#231F20"/>
    <path d="M223.755 44.8471C218.628 48.2771 215.688 50.3135 214.78 50.9023C213.873 51.4372 212.376 51.707 210.346 51.707C200.408 51.707 193.305 44.5797 193.305 33.5415C193.305 27.9157 194.909 23.9484 198.808 20.0376C204.204 14.6252 210.189 12 213.981 12C216.918 12 219.963 13.2316 222.901 15.7514L217.131 20.6289C214.834 18.8059 212.271 17.9497 209.118 17.9497C206.393 17.9497 203.776 18.8599 202.066 20.3075C200.356 22.8787 199.5 25.9873 199.5 29.4712C199.5 39.5452 205.698 46.1377 214.886 46.1377C215.634 46.1377 216.329 46.0837 216.969 45.8163V33.8114C211.574 33.8114 208.103 33.8654 206.66 33.8654L212.376 29.1498L223.755 29.2577V44.852V44.8471Z" fill="#231F20"/>
    <path d="M41.7804 97.3072L33.875 97.5747C34.1416 90.8767 34.2492 84.5001 34.2492 78.5504V63.4395C31.5244 63.4395 28.2664 63.4934 24.4727 63.5474L27.3565 59.3667C35.6899 59.5262 43.5439 59.5802 50.8109 59.5802L48.1399 63.545C45.9508 63.437 43.7054 63.437 41.4086 63.437V78.3345C41.4086 85.4079 41.5162 91.7305 41.7828 97.3048L41.7804 97.3072Z" fill="#231F20"/>
    <path d="M51.4485 78.5504C51.4485 72.1738 51.3408 65.8512 51.0742 59.5802L58.6078 59.3667C58.3412 65.7973 58.2336 71.2096 58.2336 75.7633H72.6037C72.6037 70.5644 72.4447 65.1544 72.2295 59.5802L79.7631 59.3667C79.4964 65.7433 79.3888 72.0659 79.3888 78.337C79.3888 84.6081 79.4964 90.9307 79.7631 97.3072L72.2295 97.5747C72.4423 91.8949 72.6037 86.1611 72.6037 80.4813H58.2336C58.2336 85.8937 58.3926 91.5195 58.6078 97.3072L51.0742 97.5747C51.3408 91.306 51.4485 84.927 51.4485 78.5504Z" fill="#231F20"/>
    <path d="M83.1789 78.5506C83.1789 72.4954 83.0713 66.1728 82.8047 59.5803H102.732L101.184 63.7071H90.1255C90.0717 66.5482 90.0179 70.513 89.9665 75.7634H102.842L101.294 80.1036H89.969C89.969 84.8192 90.0766 89.1054 90.2356 92.9648H94.0293C96.9669 92.9648 100.066 92.8568 103.219 92.6973L101.35 97.305H82.812C83.0786 90.9823 83.1863 84.7113 83.1863 78.5481L83.1789 78.5506Z" fill="#231F20"/>
    <path d="M135.959 88.6784C137.348 85.3024 140.66 75.6578 145.894 59.5802H153.32C153.32 68.3145 153.853 80.9082 154.817 97.3048L147.978 97.5722V93.9828C147.978 90.4989 147.765 81.9779 146.963 68.582L136.707 97.3048H132.006C130.458 91.4631 127.251 81.924 122.763 68.582L120.199 97.3048L116.031 97.5722C117.741 85.3539 118.861 73.0816 119.825 60.6499L119.238 59.5777L126.343 59.3643L135.959 88.6759V88.6784Z" fill="#231F20"/>
    <path d="M158.022 91.0902L167.64 63.7609L165.984 59.9016L172.556 58.616L187.944 96.77L181.159 97.9476C179.395 93.1241 177.686 88.8379 176.191 85.0325H164.118L160.111 97.3048L155.41 97.6802C156.533 95.001 157.44 92.8027 158.027 91.0877L158.022 91.0902ZM174.53 80.8027L169.883 68.263L165.61 80.8027H174.533H174.53Z" fill="#231F20"/>
    <path d="M195.683 97.3073L188.152 97.5748C188.419 90.7148 188.527 84.3383 188.527 78.5505C188.527 72.2819 188.419 65.9029 188.152 59.3668H189.167C193.12 59.3668 196.486 59.0994 199.318 59.0994C207.118 59.0994 211.284 63.0642 211.284 68.744C211.284 72.012 209.948 75.2825 207.811 76.9975C203.591 80.3734 200.705 81.875 200.492 81.9805C200.013 82.1939 198.944 82.2479 197.234 82.2479C196.806 82.2479 196.165 82.2479 195.312 82.1939C195.366 87.2309 195.471 92.2679 195.686 97.3049L195.683 97.3073ZM199.157 78.0157C200.438 78.0157 201.615 77.9077 202.735 77.6403C204.125 75.9253 204.924 73.6215 204.924 71.2637C204.924 67.0315 201.4 63.4396 196.378 63.4396C195.95 63.4396 195.576 63.4396 195.309 63.4935V77.7482C196.752 77.9102 198.034 78.0157 199.154 78.0157H199.157Z" fill="#231F20"/>
    </g>
    <defs>
    <filter id="filter0_d_1011_295" x="0" y="0" width="235.754" height="109.948" filterUnits="userSpaceOnUse" color-interpolation-filters="sRGB">
    <feFlood flood-opacity="0" result="BackgroundImageFix"/>
    <feColorMatrix in="SourceAlpha" type="matrix" values="0 0 0 0 0 0 0 0 0 0 0 0 0 0 0 0 0 0 127 0" result="hardAlpha"/>
    <feOffset/>
    <feGaussianBlur stdDeviation="6"/>
    <feColorMatrix type="matrix" values="0 0 0 0 1 0 0 0 0 1 0 0 0 0 1 0 0 0 1 0"/>
    <feBlend mode="normal" in2="BackgroundImageFix" result="effect1_dropShadow_1011_295"/>
    <feBlend mode="normal" in="SourceGraphic" in2="effect1_dropShadow_1011_295" result="shape"/>
    </filter>
    </defs>
    </svg>
    