<?xml version="1.0" encoding="UTF-8"?>
<svg id="Layer_1" data-name="Layer 1" xmlns="http://www.w3.org/2000/svg" xmlns:xlink="http://www.w3.org/1999/xlink" viewBox="0 0 903 388.44">
  <defs>
    <style>
      .cls-1 {
        fill: #231f20;
        stroke-width: 0px;
      }

      .cls-2 {
        filter: url(#outer-glow-3);
      }
    </style>
    <filter id="outer-glow-3" filterUnits="userSpaceOnUse">
      <feOffset dx="0" dy="0"/>
      <feGaussianBlur result="blur" stdDeviation="8"/>
      <feFlood flood-color="#fff" flood-opacity=".75"/>
      <feComposite in2="blur" operator="in"/>
      <feComposite in="SourceGraphic"/>
    </filter>
  </defs>
  <g class="cls-2">
    <path class="cls-1" d="M142.79,179.72l-20.09-15.73c-13.54,10.26-22.06,15.73-36.91,15.73-37.57,0-68.58-31.23-68.58-75.13,0-35.38,19-63.12,55.91-81.47,6.33-3.28,12.45-5.24,20.97-5.24,14.2,0,29.92,5.46,41.5,14.85,17.04,13.76,26.65,34.51,26.65,58.1,0,19.66-6.77,38.44-20.09,54.82l19.66,14.63-19,19.44ZM136.45,105.24c0-37.79-27.96-64.65-61.59-64.65-9.17,0-15.29,1.75-17.91,4.59-7.21,8.08-13.76,25.12-13.76,44.77s7.86,39.1,20.75,50.89c13.98-14.42,25.77-21.41,35.38-21.41,10.27,0,18.57,6.77,31.67,17.69,3.5-11.14,5.46-21.62,5.46-31.89ZM82.94,138.87c-5.24,0-8.95,1.97-13.1,6.34,10.05,6.33,19.44,9.39,30.8,9.39,2.4,0,5.9-.44,10.48-1.09-12.01-9.39-20.53-14.63-28.18-14.63Z"/>
    <path class="cls-1" d="M200.43,20.93c-.87,24.03-1.53,46.96-1.53,69.02,0,29.71.87,47.4,3.06,53.29,3.06,8.74,12.23,14.85,24.9,14.85,8.3,0,16.16-2.4,23.37-6.99,3.28-5.46,3.28-19,3.28-41.28,0-30.58-.22-60.06-1.53-88.02l31.23-.87c-1.09,25.99-1.53,51.76-1.53,77.32,0,11.36.22,24.68.44,39.97.22,10.7.44,23.15,1.09,37.35l-29.27,1.09c.66-4.59.66-9.39.66-14.42-19,9.83-31.02,17.47-41.72,17.47-15.72,0-29.27-7.64-36.47-19.44-5.46-9.17-5.9-24.03-5.9-44.99v-26.21c0-19.44-.66-41.94-1.53-67.27l31.45-.87Z"/>
    <path class="cls-1" d="M297.18,99.12c0-24.68-.44-50.45-1.53-77.32h81.47l-6.33,16.82h-45.21c-.22,11.58-.44,27.74-.66,49.14h52.64l-6.33,17.69h-46.3c0,19.22.44,36.69,1.09,52.42h15.51c12.01,0,24.68-.44,37.57-1.09l-7.64,18.78h-75.79c1.09-25.77,1.53-51.33,1.53-76.44Z"/>
    <path class="cls-1" d="M387.38,99.12c0-24.68-.44-50.45-1.53-77.32h81.47l-6.33,16.82h-45.21c-.22,11.58-.44,27.74-.65,49.14h52.64l-6.33,17.69h-46.3c0,19.22.44,36.69,1.09,52.42h15.51c12.01,0,24.68-.44,37.57-1.09l-7.65,18.78h-75.79c1.09-25.77,1.53-51.33,1.53-76.44Z"/>
    <path class="cls-1" d="M505.32,108.29c0,21.84.66,44.12,1.53,67.27l-30.79,1.09c1.09-27.96,1.53-53.95,1.53-77.54,0-25.55-.44-51.55-1.53-78.19h9.61c18.13,0,31.67-1.09,40.62-1.09,24.9,0,40.84,14.85,40.84,35.6,0,19-12.67,34.73-35.82,42.37l29.71,43.25c4.59,6.77,10.48,14.85,17.25,24.68l-24.46,13.98c-13.33-20.75-29.05-44.56-48.49-71.42ZM523.67,86.23c1.75,1.09,3.49,1.96,5.46,2.4,7.43-6.55,11.14-14.85,11.14-23.59,0-16.82-12.01-29.27-30.14-29.27-1.53,0-3.06.22-4.81.44v64c7.87-4.81,13.98-9.61,18.35-13.98Z"/>
    <path class="cls-1" d="M613.65,98.25c0,25.55.44,51.33,1.53,77.32l-32.33,1.09c1.09-25.55,1.53-51.55,1.53-77.54s-.44-51.77-1.53-77.32l32.33-.87c-1.09,26.21-1.53,51.76-1.53,77.32Z"/>
    <path class="cls-1" d="M637.23,39.06l-10.92-15.51,28.61-5.46,76.23,109.64-1.09-105.93,17.91-.87c-.44,19.66-.87,51.55-.87,95.88v11.36c0,13.76.22,29.49,1.31,47.4l-17.47,3.06c-10.26-17.91-36.69-57.44-78.63-119.69l-1.53,116.63-18.57,1.09c2.41-51.55,4.37-97.41,5.02-137.6Z"/>
    <path class="cls-1" d="M882.94,151.76c-20.96,13.98-32.98,22.28-36.69,24.68-3.71,2.18-9.83,3.28-18.13,3.28-40.63,0-69.67-29.05-69.67-74.04,0-22.93,6.56-39.1,22.5-55.04,22.06-22.06,46.53-32.76,62.03-32.76,12.01,0,24.46,5.02,36.47,15.29l-23.59,19.88c-9.39-7.43-19.87-10.92-32.76-10.92-11.14,0-21.84,3.71-28.83,9.61-6.99,10.48-10.49,23.15-10.49,37.35,0,41.06,25.34,67.93,62.9,67.93,3.06,0,5.9-.22,8.52-1.31v-48.93c-22.06,0-36.25.22-42.15.22l23.37-19.22,46.52.44v63.56Z"/>
    <path class="cls-1" d="M138.96,365.58l-32.32,1.09c1.09-27.3,1.53-53.29,1.53-77.54v-61.59c-11.14,0-24.46.22-39.97.44l11.79-17.04c34.07.65,66.18.87,95.89.87l-10.92,16.16c-8.95-.44-18.13-.44-27.52-.44v60.72c0,28.83.44,54.6,1.53,77.32Z"/>
    <path class="cls-1" d="M178.48,289.13c0-25.99-.44-51.76-1.53-77.32l30.8-.87c-1.09,26.21-1.53,48.27-1.53,66.83h58.75c0-21.19-.65-43.24-1.53-65.96l30.8-.87c-1.09,25.99-1.53,51.76-1.53,77.32s.44,51.33,1.53,77.32l-30.8,1.09c.87-23.15,1.53-46.52,1.53-69.67h-58.75c0,22.06.65,44.99,1.53,68.58l-30.8,1.09c1.09-25.55,1.53-51.55,1.53-77.54Z"/>
    <path class="cls-1" d="M308.21,289.13c0-24.68-.44-50.45-1.53-77.32h81.47l-6.33,16.82h-45.21c-.22,11.58-.44,27.74-.65,49.14h52.64l-6.33,17.69h-46.3c0,19.22.44,36.69,1.09,52.42h15.51c12.01,0,24.68-.44,37.57-1.09l-7.64,18.78h-75.79c1.09-25.77,1.53-51.33,1.53-76.45Z"/>
    <path class="cls-1" d="M524,330.41c5.68-13.76,19.22-53.07,40.62-118.6h30.36c0,35.6,2.18,86.93,6.12,153.76l-27.96,1.09v-14.63c0-14.2-.87-48.93-4.15-103.53l-41.93,117.07h-19.22c-6.33-23.81-19.44-62.69-37.79-117.07l-10.48,117.07-17.04,1.09c6.99-49.8,11.57-99.82,15.51-150.49l-2.4-4.37,29.05-.87,39.31,119.47Z"/>
    <path class="cls-1" d="M614.19,340.24l39.32-111.39-6.77-15.73,26.87-5.24,62.91,155.51-27.74,4.8c-7.21-19.66-14.2-37.13-20.31-52.64h-49.36l-16.38,50.02-19.22,1.53c4.59-10.92,8.3-19.88,10.7-26.87ZM681.68,298.3l-19-51.11-17.47,51.11h36.48Z"/>
    <path class="cls-1" d="M768.16,365.58l-30.79,1.09c1.09-27.96,1.53-53.95,1.53-77.54,0-25.55-.44-51.55-1.53-78.19h4.15c16.16,0,29.92-1.09,41.5-1.09,31.89,0,48.92,16.16,48.92,39.31,0,13.32-5.46,26.65-14.2,33.64-17.25,13.76-29.05,19.88-29.92,20.31-1.96.87-6.33,1.09-13.32,1.09-1.75,0-4.37,0-7.86-.22.22,20.53.65,41.06,1.53,61.59ZM782.36,286.95c5.24,0,10.05-.44,14.63-1.53,5.68-6.99,8.95-16.38,8.95-25.99,0-17.25-14.41-31.89-34.94-31.89-1.75,0-3.28,0-4.37.22v58.1c5.9.66,11.14,1.09,15.72,1.09Z"/>
  </g>
</svg>